<?xml version="1.0" encoding="UTF-8" standalone="no"?>
<!-- Created with Inkscape (http://www.inkscape.org/) -->

<svg
   xmlns:dc="http://purl.org/dc/elements/1.1/"
   xmlns:cc="http://creativecommons.org/ns#"
   xmlns:rdf="http://www.w3.org/1999/02/22-rdf-syntax-ns#"
   xmlns:svg="http://www.w3.org/2000/svg"
   xmlns="http://www.w3.org/2000/svg"
   xmlns:sodipodi="http://sodipodi.sourceforge.net/DTD/sodipodi-0.dtd"
   xmlns:inkscape="http://www.inkscape.org/namespaces/inkscape"
   width="210mm"
   height="297mm"
   viewBox="0 0 744.09448819 1052.3622047"
   id="svg2"
   version="1.1"
   inkscape:version="0.91 r"
   sodipodi:docname="logo.svg">
  <defs
     id="defs4" />
  <sodipodi:namedview
     id="base"
     pagecolor="#ffffff"
     bordercolor="#666666"
     borderopacity="1.0"
     inkscape:pageopacity="0.0"
     inkscape:pageshadow="2"
     inkscape:zoom="2.7114426"
     inkscape:cx="232.80243"
     inkscape:cy="417.40167"
     inkscape:document-units="px"
     inkscape:current-layer="layer1"
     showgrid="false"
     showguides="false" />
  <metadata
     id="metadata7">
    <rdf:RDF>
      <cc:Work
         rdf:about="">
        <dc:format>image/svg+xml</dc:format>
        <dc:type
           rdf:resource="http://purl.org/dc/dcmitype/StillImage" />
        <dc:title />
      </cc:Work>
    </rdf:RDF>
  </metadata>
  <g
     inkscape:label="Layer 1"
     inkscape:groupmode="layer"
     id="layer1">
    <text
       xml:space="preserve"
       style="font-style:normal;font-weight:normal;font-size:87.83277893px;line-height:125%;font-family:sans-serif;letter-spacing:0px;word-spacing:0px;fill:#000000;fill-opacity:1;stroke:none;stroke-width:1px;stroke-linecap:butt;stroke-linejoin:miter;stroke-opacity:1"
       x="10.900931"
       y="697.49731"
       id="text4136"
       sodipodi:linespacing="125%"
       transform="matrix(0.99701413,-0.07721932,0.07721932,0.99701413,0,0)"><tspan
         sodipodi:role="line"
         id="tspan4138"
         x="10.900931"
         y="697.49731"
         style="font-style:normal;font-variant:normal;font-weight:normal;font-stretch:normal;font-family:'Southern Aire Personal Use Only';-inkscape-font-specification:'Southern Aire Personal Use Only'">Annu</tspan></text>
    <g
       id="g4825"
       transform="translate(179.978,129.82019)">
      <g
         transform="matrix(0.99701413,-0.07721932,0.07721932,0.99701413,1.4752295,-138.85597)"
         style="font-style:normal;font-weight:normal;font-size:87.83277893px;line-height:125%;font-family:sans-serif;letter-spacing:0px;word-spacing:0px;fill:#3771c8;fill-opacity:1;stroke:none;stroke-width:1px;stroke-linecap:butt;stroke-linejoin:miter;stroke-opacity:1"
         id="g4813">
        <path
           d="m 114.9169,672.11364 q 0.52699,-0.527 1.22966,-0.35133 0.79049,0.0878 1.40532,0.61483 0.70266,0.43916 1.22966,1.22966 0.527,0.70266 0.61483,1.31749 0.17566,0.61483 -0.0878,1.58099 -0.17567,0.87833 -0.61483,1.84449 -0.35133,0.87833 -0.70267,1.66882 -0.35133,0.70266 -0.43916,1.05399 0.43916,-0.26349 2.02015,-1.75665 1.58099,-1.58099 3.33765,-3.33765 1.75666,-1.75665 3.24981,-3.16198 1.58099,-1.40532 2.02016,-1.58099 0.35133,-0.17566 1.22966,0 0.87832,0.0878 1.75665,0.527 0.87833,0.35133 1.58099,0.96616 0.70266,0.527 0.87833,1.22966 0.17566,0.70266 -0.70266,2.28365 -0.7905,1.58099 -1.75666,3.33765 -0.96616,1.66882 -1.75665,3.07414 -0.70267,1.3175 -0.2635,1.58099 0.43916,0.2635 1.93232,-0.70266 1.49316,-0.96616 3.24981,-2.37148 1.84449,-1.40533 3.42548,-2.81065 1.58099,-1.49316 2.28365,-2.10799 0.70266,-0.61483 1.14183,-0.61483 0.52699,-0.0878 0.79049,0.2635 0.2635,0.35133 0.17567,0.87833 0,0.527 -0.35133,1.14182 -0.43917,0.61483 -1.84449,2.19582 -1.40533,1.49316 -3.16198,3.24982 -1.66882,1.66882 -3.24981,3.07414 -1.58099,1.40533 -2.45932,1.66883 -1.31749,0.52699 -2.98632,0.35133 -1.58099,-0.2635 -3.07414,-0.7905 -1.49316,-0.61483 -2.54715,-1.49315 -0.96616,-0.96616 -1.054,-1.93233 -0.0878,-0.35133 0.2635,-1.40532 0.43917,-1.05399 0.96616,-2.10799 0.527,-1.05399 0.96616,-1.93232 0.527,-0.87833 0.527,-0.96616 0,0 -1.31749,1.40533 -1.22966,1.31749 -2.89848,2.89848 -1.58099,1.58099 -3.24982,2.89848 -1.58099,1.31749 -2.28365,1.31749 -1.14183,0 -2.37148,-0.70266 -1.22966,-0.7905 -1.49316,-2.28365 -0.0878,-0.61483 0.2635,-2.10799 0.2635,-1.58099 0.87832,-3.24981 0.527,-1.75666 1.3175,-3.33765 0.87832,-1.66882 1.93232,-2.54715 z"
           style="font-style:normal;font-variant:normal;font-weight:normal;font-stretch:normal;font-family:'Southern Aire Personal Use Only';-inkscape-font-specification:'Southern Aire Personal Use Only';fill:#3771c8"
           id="path4819"
           inkscape:connector-curvature="0" />
        <path
           d="m 144.55223,670.18132 q 0.61483,-0.43916 1.66882,-0.17567 1.05399,0.17567 2.02015,0.7905 0.96616,0.527 1.75666,1.31749 0.79049,0.70266 0.87833,1.31749 0.17566,0.43917 -0.35134,1.40533 -0.52699,0.87833 -1.40532,1.93232 -0.79049,1.05399 -1.75666,2.19582 -0.87832,1.14182 -1.58099,2.02015 -0.61482,0.7905 -0.79049,1.22966 -0.17567,0.43916 0.527,0.17567 0.61483,-0.2635 1.66882,-1.054 1.14183,-0.87832 2.45932,-2.02015 1.31749,-1.14183 2.72281,-2.37149 1.40533,-1.31749 2.63499,-2.45931 1.22966,-1.14183 2.10798,-1.93232 0.87833,-0.7905 1.22966,-0.96617 0.43917,-0.0878 1.14183,0.0878 0.70266,0.17566 1.40532,0.61483 0.7905,0.43916 1.31749,1.14182 0.61483,0.61483 0.87833,1.31749 0.2635,0.70267 -0.70266,2.02016 -0.87833,1.22966 -2.02015,2.54715 -1.054,1.31749 -1.84449,2.37148 -0.7905,1.054 -0.35133,1.40533 0.35133,0.2635 1.84449,-0.61483 1.58099,-0.96616 3.51331,-2.28365 1.93232,-1.40533 3.68897,-2.81065 1.84449,-1.40533 2.63499,-2.10799 1.58099,-1.40532 2.19582,-0.61483 0.61483,0.70266 -0.2635,2.10799 -0.527,0.61483 -2.10799,2.28365 -1.49316,1.58099 -3.33764,3.33765 -1.84449,1.75665 -3.68898,3.16198 -1.84449,1.40532 -2.89848,1.58099 -1.14183,0.26349 -2.45932,0 -1.22966,-0.35133 -2.37149,-1.054 -1.14182,-0.70266 -2.02015,-1.66882 -0.7905,-0.96616 -0.96616,-2.02015 -0.17567,-0.70267 0,-1.22966 0.17566,-0.61483 0.35133,-0.87833 -1.14183,0.96616 -2.54715,2.19582 -1.31749,1.14183 -2.63498,2.19582 -1.3175,1.05399 -2.45932,1.75665 -1.14183,0.70267 -1.93232,0.70267 -0.527,0 -1.49316,-0.2635 -0.96616,-0.35133 -1.84449,-0.87833 -0.96616,-0.527 -1.66882,-1.14183 -0.7905,-0.70266 -0.96616,-1.49315 -0.0878,-0.7905 0.79049,-2.54715 0.7905,-1.75666 2.02016,-3.77681 1.14182,-2.02016 2.54715,-3.86465 1.40532,-1.93232 2.45932,-2.98631 z"
           style="font-style:normal;font-variant:normal;font-weight:normal;font-stretch:normal;font-family:'Southern Aire Personal Use Only';-inkscape-font-specification:'Southern Aire Personal Use Only';fill:#3771c8"
           id="path4821"
           inkscape:connector-curvature="0" />
        <path
           sodipodi:nodetypes="ccccccccccccccsccccccc"
           inkscape:connector-curvature="0"
           id="path4823"
           style="font-style:normal;font-variant:normal;font-weight:normal;font-stretch:normal;font-family:'Southern Aire Personal Use Only';-inkscape-font-specification:'Southern Aire Personal Use Only';fill:#ff5555;fill-opacity:0.99215686"
           d="m 114.9169,672.11364 c 0.35133,-0.35133 0.76121,-0.46844 1.22966,-0.35133 0.52699,0.0585 0.99543,0.26348 1.40532,0.61483 0.46844,0.29277 0.87833,0.70266 1.22966,1.22966 0.35133,0.46844 0.55628,0.9076 0.61483,1.31749 0.11711,0.40989 0.0878,0.93688 -0.0878,1.58099 -0.11711,0.58555 -0.32206,1.20038 -0.61483,1.84449 -0.23422,0.58555 -0.46844,1.14183 -0.70267,1.66882 -0.23422,0.46844 -0.38061,0.81977 -0.43916,1.05399 0.29277,-0.17566 0.96616,-0.76121 2.02015,-1.75665 l 3.33765,-3.33765 c 0.4428,0.98907 0.65333,2.45924 -0.0878,3.24982 -0.81977,0.87833 -1.78593,1.84449 -2.89848,2.89848 -1.05399,1.05399 -2.13727,2.02015 -3.24982,2.89848 -1.05399,0.87833 -1.81521,1.31749 -2.28365,1.31749 -0.76122,0 -1.55171,-0.23422 -2.37148,-0.70266 -0.81977,-0.527 -1.31749,-1.28822 -1.49316,-2.28365 -0.0585,-0.40989 0.0293,-1.11255 0.2635,-2.10799 0.17567,-1.05399 0.46844,-2.13726 0.87832,-3.24981 0.35133,-1.17111 0.7905,-2.28366 1.3175,-3.33765 0.58555,-1.11255 1.22965,-1.9616 1.93232,-2.54715 z" />
      </g>
      <g
         id="text4800"
         style="font-style:normal;font-weight:normal;font-size:87.83277893px;line-height:125%;font-family:sans-serif;letter-spacing:0px;word-spacing:0px;fill:#000000;fill-opacity:1;stroke:none;stroke-width:1px;stroke-linecap:butt;stroke-linejoin:miter;stroke-opacity:1"
         transform="matrix(0.99701413,-0.07721932,0.07721932,0.99701413,1.4752295,-138.85597)">
        <path
           inkscape:connector-curvature="0"
           id="path4805"
           style="font-style:normal;font-variant:normal;font-weight:normal;font-stretch:normal;font-family:'Southern Aire Personal Use Only';-inkscape-font-specification:'Southern Aire Personal Use Only';fill:#ff5555"
           d="m 15.731734,689.24103 q 4.655137,-7.99278 11.945258,-15.5464 7.377954,-7.55362 16.073399,-13.43841 8.783278,-5.97263 18.269218,-9.57378 9.48594,-3.60114 18.444883,-3.60114 2.986315,0 5.269967,0.61483 2.283652,0.61483 3.601144,1.84449 1.317492,1.22966 1.58099,3.16198 0.351331,1.93232 -0.614829,4.65513 -1.053994,2.98632 -3.074148,6.93879 -1.932321,3.95248 -4.391639,8.16845 -2.371485,4.12814 -5.006468,8.34412 -2.634983,4.12814 -5.006468,7.64145 -2.283653,3.42548 -4.128141,5.88479 -1.756656,2.45932 -2.547151,3.33765 -0.614829,0.7905 -2.195819,1.05399 -1.493157,0.2635 -2.986315,0 -1.405324,-0.17566 -2.283652,-0.79049 -0.790495,-0.61483 0,-1.66882 1.229659,-1.75666 2.634983,-3.77681 1.493158,-2.10799 2.898482,-4.30381 1.493157,-2.19582 2.810649,-4.30381 1.405325,-2.19582 2.459318,-4.12814 -6.499626,1.14183 -12.64792,2.63499 -6.060462,1.40532 -11.945258,3.24981 -5.884796,1.75665 -11.769593,4.04031 -5.796963,2.19582 -11.769592,4.8308 -1.141826,2.10799 -1.668823,3.60114 -0.439164,1.49316 -0.878328,2.72282 -0.175665,0.35133 -0.96616,0.35133 -0.702662,0.0878 -1.668823,-0.17566 -0.878328,-0.2635 -1.756655,-0.70267 -0.790495,-0.43916 -1.053994,-1.05399 -0.526997,-1.05399 -0.439164,-2.37148 0.175666,-1.40533 0.61483,-2.81065 0.439164,-1.49316 1.053993,-2.72282 0.702662,-1.31749 1.141826,-2.10799 z m 56.388644,-14.58024 q 1.493158,-2.37148 3.337646,-5.18213 1.932321,-2.89848 3.601144,-5.70913 1.668823,-2.81065 2.986314,-5.44563 1.317492,-2.63499 1.668823,-4.65514 0.351331,-2.02016 -0.526997,-3.24982 -0.790495,-1.22965 -3.337645,-1.22965 -5.182134,0 -10.627766,2.02015 -5.3578,2.02015 -10.803432,5.44563 -5.3578,3.33765 -10.539934,7.72929 -5.094301,4.3038 -9.749438,8.95894 -4.567305,4.65514 -8.431947,9.31027 -3.864642,4.56731 -6.675291,8.34412 4.567304,-2.37149 10.715599,-4.91864 6.148294,-2.54715 12.823586,-4.74297 6.763124,-2.28365 13.350582,-4.0403 6.675291,-1.75666 12.208756,-2.63499 z" />
        <path
           inkscape:connector-curvature="0"
           id="path4807"
           style="font-style:normal;font-variant:normal;font-weight:normal;font-stretch:normal;font-family:'Southern Aire Personal Use Only';-inkscape-font-specification:'Southern Aire Personal Use Only';fill:#ff5555;fill-opacity:0.99215686"
           d="m 87.126057,672.11364 q 0.526997,-0.527 1.229659,-0.35133 0.790495,0.0878 1.405325,0.61483 0.702662,0.43916 1.229659,1.22966 0.526996,0.70266 0.614829,1.31749 0.175666,0.61483 -0.08783,1.58099 -0.175665,0.87833 -0.614829,1.84449 -0.351331,0.87833 -0.702662,1.66882 -0.351332,0.70266 -0.439164,1.05399 0.439164,-0.26349 2.020154,-1.75665 1.58099,-1.58099 3.337645,-3.33765 1.756656,-1.75665 3.249813,-3.16198 1.58099,-1.40532 2.020154,-1.58099 0.35133,-0.17566 1.22966,0 0.87832,0.0878 1.75665,0.527 0.87833,0.35133 1.58099,0.96616 0.70266,0.527 0.87833,1.22966 0.17566,0.70266 -0.70266,2.28365 -0.7905,1.58099 -1.75666,3.33765 -0.96616,1.66882 -1.75665,3.07414 -0.70267,1.3175 -0.2635,1.58099 0.43916,0.2635 1.93232,-0.70266 1.49316,-0.96616 3.24981,-2.37148 1.84449,-1.40533 3.42548,-2.81065 1.58099,-1.49316 2.28365,-2.10799 0.70266,-0.61483 1.14183,-0.61483 0.52699,-0.0878 0.79049,0.2635 0.2635,0.35133 0.17567,0.87833 0,0.527 -0.35133,1.14182 -0.43917,0.61483 -1.84449,2.19582 -1.40533,1.49316 -3.16198,3.24982 -1.66882,1.66882 -3.24981,3.07414 -1.58099,1.40533 -2.45932,1.66883 -1.31749,0.52699 -2.98632,0.35133 -1.580983,-0.2635 -3.07414,-0.7905 -1.493157,-0.61483 -2.547151,-1.49315 -0.96616,-0.96616 -1.053993,-1.93233 -0.08783,-0.35133 0.263498,-1.40532 0.439164,-1.05399 0.966161,-2.10799 0.526996,-1.05399 0.96616,-1.93232 0.526997,-0.87833 0.526997,-0.96616 0,0 -1.317492,1.40533 -1.229659,1.31749 -2.898481,2.89848 -1.58099,1.58099 -3.249813,2.89848 -1.58099,1.31749 -2.283652,1.31749 -1.141827,0 -2.371485,-0.70266 -1.229659,-0.7905 -1.493158,-2.28365 -0.08783,-0.61483 0.263499,-2.10799 0.263498,-1.58099 0.878327,-3.24981 0.526997,-1.75666 1.317492,-3.33765 0.878328,-1.66882 1.932321,-2.54715 z" />
      </g>
    </g>
  </g>
</svg>
