<?xml version="1.0" encoding="UTF-8" standalone="no"?>
<!-- Created with Inkscape (http://www.inkscape.org/) -->

<svg
   xmlns:dc="http://purl.org/dc/elements/1.1/"
   xmlns:cc="http://creativecommons.org/ns#"
   xmlns:rdf="http://www.w3.org/1999/02/22-rdf-syntax-ns#"
   xmlns:svg="http://www.w3.org/2000/svg"
   xmlns="http://www.w3.org/2000/svg"
   xmlns:sodipodi="http://sodipodi.sourceforge.net/DTD/sodipodi-0.dtd"
   xmlns:inkscape="http://www.inkscape.org/namespaces/inkscape"
   width="210mm"
   height="297mm"
   viewBox="0 0 744.09448819 1052.3622047"
   id="svg2"
   version="1.1"
   inkscape:version="0.91 r"
   sodipodi:docname="logo1.svg">
  <defs
     id="defs4" />
  <sodipodi:namedview
     id="base"
     pagecolor="#ffffff"
     bordercolor="#666666"
     borderopacity="1.0"
     inkscape:pageopacity="0.0"
     inkscape:pageshadow="2"
     inkscape:zoom="3.8345588"
     inkscape:cx="-382.71712"
     inkscape:cy="418.42512"
     inkscape:document-units="px"
     inkscape:current-layer="layer1"
     showgrid="false"
     showguides="true"
     inkscape:guide-bbox="true">
    <sodipodi:guide
       position="-371.48123,424.40509"
       orientation="0,1"
       id="guide4155" />
    <sodipodi:guide
       position="-343.06424,429.64526"
       orientation="0,1"
       id="guide4256" />
  </sodipodi:namedview>
  <metadata
     id="metadata7">
    <rdf:RDF>
      <cc:Work
         rdf:about="">
        <dc:format>image/svg+xml</dc:format>
        <dc:type
           rdf:resource="http://purl.org/dc/dcmitype/StillImage" />
      </cc:Work>
    </rdf:RDF>
  </metadata>
  <g
     inkscape:label="Layer 1"
     inkscape:groupmode="layer"
     id="layer1">
    <text
       xml:space="preserve"
       style="font-style:normal;font-weight:normal;font-size:60px;line-height:125%;font-family:sans-serif;letter-spacing:0px;word-spacing:0px;fill:#000000;fill-opacity:1;stroke:none;stroke-width:1px;stroke-linecap:butt;stroke-linejoin:miter;stroke-opacity:1"
       x="-521.57239"
       y="547.4801"
       id="text4136"
       sodipodi:linespacing="125%"><tspan
         sodipodi:role="line"
         id="tspan4138"
         x="-521.57239"
         y="547.4801"
         style="font-style:normal;font-variant:normal;font-weight:bold;font-stretch:normal;font-family:'FFF Tusj';-inkscape-font-specification:'FFF Tusj Bold'">ANNU</tspan></text>
    <g
       style="font-style:normal;font-weight:normal;font-size:60px;line-height:125%;font-family:sans-serif;letter-spacing:0px;word-spacing:0px;fill:#000000;fill-opacity:1;stroke:none;stroke-width:1px;stroke-linecap:butt;stroke-linejoin:miter;stroke-opacity:1"
       id="text4140"
       transform="matrix(1.5435035,0,0,1.5435035,215.57638,-332.38427)"
       inkscape:export-xdpi="77.68"
       inkscape:export-ydpi="77.68">
      <path
         d="m -446.52685,611.60152 c 0,3.17065 -6.37345,5.39916 -3.81486,6.8113 1.36719,0.77268 6.63546,-4.01768 8.3542,-4.01768 3.20313,0 1.19244,3.96608 3.27666,2.67881 1.32812,-1.43878 1.99218,-3.28388 1.99218,-5.53532 0,-3.38379 -1.37695,-5.74179 -4.13086,-7.074 -1.32812,-0.65278 -2.83203,-0.97918 -4.51172,-0.97918 -2.87109,0 4.67615,2.0499 3.19178,3.60858 -0.68359,0.67942 -10.97498,0.24816 -11.4242,1.24731 -0.39062,0.98583 7.06682,2.11449 7.06682,3.26018 z m 9.92537,-9.47491 c 0.0781,-0.5995 0.3418,-1.03246 0.79102,-1.2989 0.42969,-0.30641 0.98633,-0.45962 1.66992,-0.45962 0.68359,0 1.2793,0.15321 1.78711,0.45962 0.44922,0.29308 0.67383,0.75269 0.67383,1.37883 l 0,18.62423 c 0,1.22563 -0.82031,1.83844 -2.46094,1.83844 -0.68359,0 -1.26953,-0.15986 -1.75781,-0.47959 -0.46875,-0.33305 -0.70313,-0.73271 -0.70313,-1.19898 l 0,-1.59865 c -2.40235,2.18482 -5.22461,3.27722 -8.4668,3.27722 -4.43359,0 -7.98828,-1.11905 -10.66406,-3.35715 -2.48047,-2.09157 -3.7207,-4.65606 -3.7207,-7.69349 0,-4.74266 2.44141,-8.07983 7.32422,-10.01152 2.10937,-0.82597 4.24804,-1.23896 6.41601,-1.23896 3.59375,0 6.5918,0.98583 8.99414,2.9575 z"
         style="font-style:normal;font-variant:normal;font-weight:normal;font-stretch:normal;font-family:UnDinaru;-inkscape-font-specification:UnDinaru"
         id="path4145"
         inkscape:connector-curvature="0"
         sodipodi:nodetypes="scscscsccsccscssscscscscscc"
         inkscape:export-xdpi="77.68"
         inkscape:export-ydpi="77.68" />
      <path
         d="m -426.61906,602.28647 q 0,-0.89924 0.76172,-1.37883 0.73242,-0.53955 1.81641,-0.53955 1.14258,0 1.90429,0.45962 0.73243,0.47959 0.73243,1.45876 l 0,0.85928 0.11718,0.0799 q 1.49414,-1.37883 3.7793,-2.1182 2.22656,-0.73938 4.92188,-0.73938 6.73828,0 9.72656,3.67689 1.49414,1.81846 1.49414,4.63608 l 0,12.14971 q 0,0.73938 -0.79102,1.27892 -0.70312,0.47959 -1.8457,0.47959 -0.9668,0 -1.72852,-0.47959 -0.84961,-0.45961 -0.84961,-1.27892 l 0,-12.06978 q 0,-2.41795 -2.22656,-3.79679 -2.10937,-1.39881 -5.15625,-1.39881 -1.99219,0 -3.60351,0.51956 -1.55274,0.53954 -2.75391,1.85843 -1.08398,1.25893 -1.08398,2.89754 l 0,11.98985 q 0,1.91838 -2.51954,1.91838 -1.08398,0 -1.8457,-0.51956 -0.84961,-0.57951 -0.84961,-1.39882 l 0,-18.5443 z"
         style="font-style:normal;font-variant:normal;font-weight:normal;font-stretch:normal;font-family:UnDinaru;-inkscape-font-specification:UnDinaru"
         id="path4147"
         inkscape:connector-curvature="0"
         inkscape:export-xdpi="77.68"
         inkscape:export-ydpi="77.68" />
      <path
         d="m -398.50968,602.28647 q 0,-0.89924 0.76172,-1.37883 0.73242,-0.53955 1.8164,-0.53955 1.14258,0 1.9043,0.45962 0.73242,0.47959 0.73242,1.45876 l 0,0.85928 0.11719,0.0799 q 1.49414,-1.37883 3.7793,-2.1182 2.22656,-0.73938 4.92187,-0.73938 6.73828,0 9.72656,3.67689 1.49414,1.81846 1.49414,4.63608 l 0,12.14971 q 0,0.73938 -0.79101,1.27892 -0.70313,0.47959 -1.84571,0.47959 -0.96679,0 -1.72851,-0.47959 -0.84961,-0.45961 -0.84961,-1.27892 l 0,-12.06978 q 0,-2.41795 -2.22656,-3.79679 -2.10938,-1.39881 -5.15625,-1.39881 -1.99219,0 -3.60352,0.51956 -1.55273,0.53954 -2.7539,1.85843 -1.08399,1.25893 -1.08399,2.89754 l 0,11.98985 q 0,1.91838 -2.51953,1.91838 -1.08398,0 -1.8457,-0.51956 -0.84961,-0.57951 -0.84961,-1.39882 l 0,-18.5443 z"
         style="font-style:normal;font-variant:normal;font-weight:normal;font-stretch:normal;font-family:UnDinaru;-inkscape-font-specification:UnDinaru"
         id="path4149"
         inkscape:connector-curvature="0"
         inkscape:export-xdpi="77.68"
         inkscape:export-ydpi="77.68" />
      <path
         d="m -370.40031,602.20654 q 0,-1.83845 2.57813,-1.83845 1.02539,0 1.8457,0.45962 0.79102,0.47959 0.79102,1.37883 l 0,11.90991 q 0,2.53785 1.8457,3.97664 1.875,1.47875 5.47851,1.47875 7.5,0 7.5,-5.45539 l 0,-11.90991 q 0,-1.83845 2.57813,-1.83845 1.08398,0 1.8457,0.41965 0.79102,0.39966 0.79102,1.4188 l 0,11.98985 q 0,5.03573 -5.56641,7.29382 -2.95898,1.179 -7.26562,1.179 -8.05664,0 -11.04492,-4.25639 -1.37696,-1.99831 -1.37696,-4.21643 l 0,-11.98985 z"
         style="font-style:normal;font-variant:normal;font-weight:normal;font-stretch:normal;font-family:UnDinaru;-inkscape-font-specification:UnDinaru"
         id="path4151"
         inkscape:connector-curvature="0"
         inkscape:export-xdpi="77.68"
         inkscape:export-ydpi="77.68" />
      <path
         d="m -338.29173,613.66366 q 1.84427,0 3.13099,1.3296 1.3296,1.3296 1.3296,3.17389 0,1.71561 -1.28672,3.17389 -1.45826,1.2867 -3.17387,1.2867 -1.75853,0 -3.08813,-1.37249 -1.37249,-1.3296 -1.37249,-3.0881 0,-1.75851 1.37249,-3.17389 1.3296,-1.3296 3.08813,-1.3296 z"
         style="font-style:normal;font-variant:normal;font-weight:normal;font-stretch:normal;font-family:UnDinaru;-inkscape-font-specification:UnDinaru;fill:#2c5aa0"
         id="path4153"
         inkscape:connector-curvature="0"
         inkscape:export-xdpi="77.68"
         inkscape:export-ydpi="77.68" />
      <path
         inkscape:connector-curvature="0"
         id="path4210"
         style="font-style:normal;font-variant:normal;font-weight:normal;font-stretch:normal;font-family:UnDinaru;-inkscape-font-specification:UnDinaru;fill:#ffffff"
         d="m -437.36534,608.05928 q 1.32177,0 2.24395,0.64997 0.95291,0.64997 0.95291,1.55155 0,0.83866 -0.92218,1.55154 -1.04512,0.629 -2.27468,0.629 -1.26031,0 -2.21322,-0.67094 -0.98365,-0.64997 -0.98365,-1.5096 0,-0.85964 0.98365,-1.55155 0.95291,-0.64997 2.21322,-0.64997 z"
         inkscape:export-xdpi="77.68"
         inkscape:export-ydpi="77.68" />
    </g>
  </g>
</svg>
